# xmcd CD database file
#
# Track frame offsets:
#	150
#	15742
#	31107
#	46189
#	59272
#	73744
#	89885
#	106226
#	123179
#	136505
#	148605
#	162663
#
# Disc length: 2353 seconds
#
# Revision: 0
# Processed by: cddbd v1.5.2PL0 Copyright (c) Steve Scherf et al.
# Submitted via: CdAid (MTCDDB.DLL V2003.12.21)
#
DISCID=a1092f0c
DTITLE=Grupo Só de Onda - Grupo Só de Onda
DYEAR=1997
DGENRE=Samba
TTITLE0=A Dança do Cachorrinho
TTITLE1=Dança do Pinto
TTITLE2=Dança do Carro de Mão
TTITLE3=Dança do Vai e Vem
TTITLE4=Atrás de Tu
TTITLE5=Quebralexo
TTITLE6=Nelô do sabonete
TTITLE7=Dança do Bambolê
TTITLE8=Carolina Carol
TTITLE9=Cafungada
TTITLE10=Dona Rita
TTITLE11=Chegou a Moreninha
EXTD=ID3G: 114 YEAR: 1997
EXTT0=
EXTT1=
EXTT2=
EXTT3=
EXTT4=
EXTT5=
EXTT6=
EXTT7=
EXTT8=
EXTT9=
EXTT10=
EXTT11=
PLAYORDER=
